<svg xmlns="http://www.w3.org/2000/svg" shape-rendering="geometricPrecision" text-rendering="geometricPrecision" image-rendering="optimizeQuality" fill-rule="evenodd" clip-rule="evenodd" viewBox="0 0 492 512.324"><circle fill="#F33" cx="231.181" cy="231.181" r="231.181"/><path fill="#B22424" d="M437.687 127.171C471.6 167.894 492 220.259 492 277.396c0 129.746-105.183 234.928-234.928 234.928-103.431 0-191.249-66.843-222.619-159.684 40.74 65.851 113.605 109.722 196.728 109.722 127.682 0 231.181-103.499 231.181-231.181 0-37.412-8.899-72.749-24.675-104.01z"/><path fill="#fff" fill-rule="nonzero" d="M287.713 185.327c-7.388-8.54-6.456-21.466 2.084-28.855 8.54-7.388 21.466-6.456 28.855 2.084a115.738 115.738 0 0120.83 35.219c4.704 12.679 7.283 26.248 7.283 40.234 0 31.807-12.941 60.69-33.863 81.641l-.078.078c-20.993 20.943-49.855 33.863-81.641 33.863-31.906 0-60.803-12.941-81.725-33.863-20.916-20.916-33.856-49.813-33.856-81.719 0-13.767 2.479-27.103 7.007-39.528 4.655-12.771 11.556-24.532 20.195-34.802 7.254-8.632 20.145-9.741 28.777-2.487 8.632 7.255 9.74 20.146 2.486 28.777a74.492 74.492 0 00-12.976 22.456c-2.868 7.868-4.436 16.486-4.436 25.584 0 20.583 8.343 39.224 21.82 52.701 13.484 13.485 32.125 21.827 52.708 21.827 20.64 0 39.274-8.314 52.702-21.749l.077-.078c13.435-13.427 21.749-32.061 21.749-52.701 0-9.289-1.61-18.033-4.556-25.966a74.568 74.568 0 00-13.442-22.716zm-36.003 9.182c0 11.331-9.197 20.527-20.527 20.527-11.33 0-20.526-9.196-20.526-20.527v-61.206c0-11.33 9.196-20.526 20.526-20.526s20.527 9.196 20.527 20.526v61.206z"/></svg>